PathFileType	4	(X/Y/Z)	C:\Users\Basilio\Documents\Thesis Gigler\squatting_fais\c3dfiles\075\SLS_back_pre5\markers_experimental.trc
DataRate	CameraRate	NumFrames	NumMarkers	Units	OrigDataRate	OrigDataStartFrame	OrigNumFrames
200.000000	200.000000	4	61	mm	200.000000	806	1291
Frame#	Time	FHD			LBHD			C7			T10			CLAV			LSHO			LUUPA			LMUPA			LDUPA			LLEP			LMEP			LRAD			LUL			LRFIN			RSHO			RUPA1			RMUPA			RDUPA			RLEP			RMEP			RRAD			RUL			RUFIN			LASI			RASI			USACR			LSACR			RSACR			LTHI1			LTHI2			LTHI3			LTHI4			LLFC			LMFC			LTIB1			LTIB2			LTIB3			LTIB4			LLMAL			LMMAL			LHEE			LMT1			LMT2			LMT5			RTHI			RTHI2			RTHI3			RTHI4			RLFC			RMFC			RTIB1			RTIB2			RTIB3			RTIB4			RLMAL			RMMAL			RHEE			RMT1			RMT2			RMT5			RBHD			
		X1	Y1	Z1	X2	Y2	Z2	X3	Y3	Z3	X4	Y4	Z4	X5	Y5	Z5	X6	Y6	Z6	X7	Y7	Z7	X8	Y8	Z8	X9	Y9	Z9	X10	Y10	Z10	X11	Y11	Z11	X12	Y12	Z12	X13	Y13	Z13	X14	Y14	Z14	X15	Y15	Z15	X16	Y16	Z16	X17	Y17	Z17	X18	Y18	Z18	X19	Y19	Z19	X20	Y20	Z20	X21	Y21	Z21	X22	Y22	Z22	X23	Y23	Z23	X24	Y24	Z24	X25	Y25	Z25	X26	Y26	Z26	X27	Y27	Z27	X28	Y28	Z28	X29	Y29	Z29	X30	Y30	Z30	X31	Y31	Z31	X32	Y32	Z32	X33	Y33	Z33	X34	Y34	Z34	X35	Y35	Z35	X36	Y36	Z36	X37	Y37	Z37	X38	Y38	Z38	X39	Y39	Z39	X40	Y40	Z40	X41	Y41	Z41	X42	Y42	Z42	X43	Y43	Z43	X44	Y44	Z44	X45	Y45	Z45	X46	Y46	Z46	X47	Y47	Z47	X48	Y48	Z48	X49	Y49	Z49	X50	Y50	Z50	X51	Y51	Z51	X52	Y52	Z52	X53	Y53	Z53	X54	Y54	Z54	X55	Y55	Z55	X56	Y56	Z56	X57	Y57	Z57	X58	Y58	Z58	X59	Y59	Z59	X60	Y60	Z60	X61	Y61	Z61	

807	4.03	-222.6229400634766	1732.516479492188	-768.1895141601565	-363.1556091308594	1605.7626953125	-833.5039672851565	-394.5113830566407	1498.801391601563	-773.0366210937502	-437.0894470214845	1180.531005859375	-778.587829589844	-254.8064117431641	1435.938354492188	-773.024597167969	-290.0887451171876	1494.083251953125	-901.0577392578127	-143.9524993896485	1438.568481445313	-1013.73828125	-115.5387725830078	1462.695556640625	-980.613708496094	-74.10601043701173	1440.100463867188	-1018.533203125	11.82168006896973	1440.324951171875	-1012.384460449219	5.484734058380128	1365.082885742188	-968.7320556640627	nan	nan	nan	226.6222839355469	1506.59521484375	-881.3217773437502	220.0650482177735	1534.145751953125	-776.7107543945315	-296.3235168457032	1474.886352539063	-637.8416137695314	-160.2289428710938	1427.00927734375	-518.8302612304689	-128.2733459472657	1449.042602539063	-548.4308471679689	-90.82578277587892	1427.228515625	-504.7508850097657	-19.27649879455567	1432.92138671875	-506.4223632812501	1.126796364784241	1359.741577148438	-530.2294921875001	160.5206298828125	1501.702026367188	-704.2228393554689	191.1738586425782	1513.455444335938	-636.6232299804689	225.4077453613282	1551.93701171875	-742.4840087890626	-297.7826232910157	1013.792297363281	-924.096862792969	-294.6229553222657	989.875427246094	-672.2590332031251	-445.6343688964845	1080.371337890625	-790.9392700195315	-455.8427734375001	1052.734252929688	-821.4479980468752	-453.9113769531251	1047.758544921875	-764.0283203125001	-252.7710876464844	827.233337402344	-1024.857543945313	-182.6958923339844	780.9812622070315	-1033.696655273438	-149.3381042480469	800.512634277344	-1002.9384765625	-176.8083190917969	720.7580566406251	-1043.911376953125	-148.5013732910157	636.8592529296876	-1043.768310546875	-128.697982788086	598.6164550781251	-913.8933715820315	-190.928955078125	517.0364379882814	-1006.600524902344	-258.5632324218751	547.1201171875001	-1053.304321289063	-242.7618713378907	510.2445678710939	-1034.664672851563	-312.9908752441407	475.2980041503907	-1004.0087890625	-477.934295654297	465.5460815429689	-1019.020080566406	-440.6402587890626	462.1014709472657	-936.6105957031252	-523.0014038085939	511.9496154785157	-979.7442016601565	-455.8042602539064	326.7820434570313	-909.5132446289065	-462.7731018066407	309.3890991210938	-955.5640869140627	-506.5850219726564	323.0258483886719	-1001.870666503906	-364.8883361816407	784.294616699219	-625.7141113281251	-324.5932312011719	732.3511352539064	-633.0048217773439	-293.6600952148438	739.5760498046876	-644.1871948242189	-351.1943359375001	652.4539184570314	-651.3338623046876	-360.9513854980469	502.9357299804689	-695.6054687500001	-326.4451599121094	508.9170837402345	-821.0166625976565	-306.9761047363282	365.2567749023438	-775.2759399414065	-351.5482482910157	281.3947753906251	-723.1901245117189	-315.2794494628907	280.6535644531251	-755.9208374023439	-327.1503906250001	238.9557495117188	-795.5601196289065	-392.4854125976564	115.4585876464844	-768.1339111328127	-367.9904479980469	143.4774169921875	-846.8108520507815	-449.6135253906251	99.39585113525393	-824.6524658203127	-247.2655944824219	55.06287384033205	-838.2675781250002	-245.5365600585938	55.3470802307129	-795.4353027343752	-283.1866455078126	36.06232833862305	-742.8161621093751	-324.7855834960938	1647.131958007813	-680.7683105468751	
808	4.035	-222.9365234375001	1732.52783203125	-768.3990478515627	-363.5219116210938	1605.6572265625	-833.8272705078127	-394.7962036132814	1498.658813476563	-773.1901855468752	-436.9981689453126	1180.329223632813	-778.7442016601565	-255.0914306640626	1435.894897460938	-773.307800292969	-290.4191589355469	1493.877319335938	-901.2221679687502	-143.5609283447266	1438.205932617188	-1014.003967285156	-115.913932800293	1462.615234375	-980.9087524414065	-74.48443603515626	1440.001098632813	-1018.907470703125	11.49559879302979	1440.479736328125	-1012.926147460938	5.321532249450684	1365.122436523438	-969.1179199218752	nan	nan	nan	226.191390991211	1506.98291015625	-881.8051757812502	219.8612670898438	1534.450073242188	-777.0650024414065	-296.5960998535157	1474.822509765625	-638.0141601562501	-160.3888854980469	1427.017944335938	-518.9171142578126	-128.4638671875	1449.098510742188	-548.6900024414064	-91.03927612304689	1427.32958984375	-504.9647521972657	-19.46831512451172	1433.009765625	-506.6354064941407	0.9619905948638918	1359.777099609375	-530.4436645507814	160.1979217529297	1501.90283203125	-704.5099487304689	190.7989196777344	1513.66943359375	-636.8311157226564	224.8470153808594	1552.157348632813	-742.8860473632814	-297.6036682128907	1013.643432617188	-924.0936279296877	-294.3295288085938	989.915466308594	-672.2103881835939	-445.4558410644532	1080.158447265625	-791.0203857421877	-455.5865478515626	1052.488403320313	-821.509704589844	-453.5892028808595	1047.508056640625	-764.0444946289064	-252.3785705566407	827.3015747070315	-1024.98291015625	-182.0685272216797	781.0672607421877	-1033.654296875	-148.9105834960938	800.576110839844	-1002.887939453125	-176.0750427246094	720.8358154296876	-1043.873413085938	-147.6622924804688	636.9783325195314	-1043.6201171875	-127.8661193847657	598.8129272460939	-913.8198242187502	-189.0935668945313	516.7540283203126	-1005.907470703125	-257.4457702636719	546.8382568359376	-1053.28515625	-241.5011901855469	510.177703857422	-1034.533569335938	-311.0273742675782	474.971649169922	-1003.08349609375	-476.3847656250001	464.3718261718751	-1018.834167480469	-439.4502258300782	461.3988342285157	-936.4454345703127	-522.0559692382814	510.6694641113282	-979.4340820312502	-453.5345764160157	325.8802795410157	-909.443298339844	-459.9309692382814	308.7382812500001	-955.3218383789065	-504.2558898925782	321.7677001953126	-1001.491149902344	-364.3117675781251	784.3435668945315	-625.6245727539064	-324.2132263183594	732.2001342773439	-633.0568237304689	-293.2179260253907	739.4960937500001	-644.1116943359376	-350.7503967285157	652.3878173828126	-651.2465820312501	-360.4352111816407	502.8541564941407	-695.4265747070314	-325.8195800781251	508.8023681640626	-820.8913574218752	-306.5323486328126	365.1316833496094	-775.146667480469	-351.3427429199219	281.3338928222657	-723.2245483398439	-315.0351562500001	280.5399169921876	-755.9154052734376	-326.9082946777344	238.8231811523438	-795.4407348632815	-392.4890441894532	115.4393539428711	-768.1060791015627	-367.9576110839844	143.4792175292969	-846.7937622070315	-449.5857849121095	99.43788909912112	-824.6040649414065	-247.6844024658204	55.16904067993165	-838.5216064453127	-245.5461425781251	55.35526657104494	-795.4685058593752	-283.2123107910157	36.02211380004884	-742.8828125000001	-324.9640197753907	1647.0654296875	-681.1048583984376	
809	4.04	-223.2224273681641	1732.493408203125	-768.5972290039065	-363.8037719726563	1605.62744140625	-834.0670166015627	-395.0534057617189	1498.505981445313	-773.4429321289065	-436.8714904785157	1180.13427734375	-778.8383789062502	-255.3251342773438	1435.650268554688	-773.8628540039065	-290.6808166503907	1493.738525390625	-901.4444580078127	-143.9383850097657	1438.063110351563	-1014.344482421875	-116.7658996582032	1462.796997070313	-981.3358154296877	-74.7252883911133	1439.841430664063	-1019.311767578125	11.16949272155762	1440.516357421875	-1013.312072753906	5.112450122833253	1365.131591796875	-969.6022949218752	nan	nan	nan	225.7264404296876	1507.296264648438	-882.2746582031252	219.387435913086	1534.731079101563	-777.3870239257815	-296.7664489746094	1474.792236328125	-638.1092529296876	-160.5741271972657	1427.012939453125	-519.1362304687501	-128.7192840576172	1449.1240234375	-548.8565673828126	-91.22574615478517	1427.3447265625	-505.1405334472657	-19.68141174316407	1433.047973632813	-506.8469238281251	0.8795218467712405	1359.918334960938	-530.6269531250001	159.7240905761719	1502.050659179688	-704.6621093750001	190.3694458007813	1514	-637.2087402343751	224.3206481933594	1552.523193359375	-743.3010864257814	-297.2483520507813	1013.546752929688	-924.1226806640627	-294.0841064453126	989.9256591796877	-672.1745605468751	-445.6500549316407	1080.145874023438	-790.9744262695315	-455.3917846679689	1052.12939453125	-821.5391235351565	-453.2561645507814	1047.3310546875	-764.0198974609376	-251.6702270507813	827.2371826171877	-1024.906005859375	-181.3891296386719	781.079284667969	-1033.617797851563	-148.3154754638672	800.7322998046877	-1002.905395507813	-175.325424194336	720.9865112304689	-1043.77099609375	-146.90771484375	637.1567993164064	-1043.5654296875	-126.9873886108399	599.0303344726564	-913.7528076171877	-188.0536651611328	516.6611328125001	-1005.785400390625	-256.5103149414063	546.6553955078126	-1053.184448242188	-240.1457672119141	510.0137329101564	-1034.328247070313	-309.7339477539063	474.5032958984376	-1002.790283203125	-475.2847290039064	463.413543701172	-1018.591125488281	-438.0557861328126	460.602264404297	-936.1597290039065	-521.1191406250001	509.3649291992189	-979.2907714843752	-451.4117736816407	325.1725463867188	-909.2239990234377	-457.6497802734376	307.7962341308594	-955.0447998046877	-501.8847656250001	320.4883728027344	-1001.15673828125	-363.8175964355469	784.3211669921877	-625.5366210937501	-323.7233581542969	732.2952880859376	-632.8276367187501	-292.7641906738282	739.4448242187501	-644.0626220703126	-350.1598510742188	652.3638916015626	-651.0783081054689	-359.7372436523438	502.8551330566407	-695.2610473632814	-325.2790222167969	508.7268066406251	-820.7471313476565	-306.1442565917969	364.9179687500001	-775.1051025390627	-351.0694885253907	281.2675476074219	-723.1139526367189	-314.8373718261719	280.4801635742188	-755.8981323242189	-326.7912292480469	238.7291717529297	-795.4326171875002	-392.4392089843751	115.4292755126953	-768.073181152344	-367.2843933105469	143.2042388916016	-846.5552978515627	-449.5571594238282	99.46376037597659	-824.617858886719	-247.2362213134766	55.03286361694337	-838.2520141601565	-245.4912567138672	55.34871673583986	-795.4407348632815	-283.2019348144532	36.0168571472168	-742.8818359375001	-325.2616577148438	1647.035766601563	-681.3663940429689	
810	4.045	-223.5819549560547	1732.518432617188	-768.8359375000002	-363.8830871582032	1605.52197265625	-834.144714355469	-395.4172668457032	1498.256591796875	-773.6269531250002	-436.7963256835939	1179.9208984375	-778.9381103515627	-255.5229797363282	1435.57275390625	-774.0684814453127	-290.9160766601563	1493.506469726563	-901.736022949219	-144.2757873535157	1437.892456054688	-1014.544372558594	-117.1276779174805	1462.73193359375	-981.7143554687502	-75.0176239013672	1439.784301757813	-1019.740844726563	10.85411548614502	1440.536376953125	-1013.69970703125	4.868756771087647	1365.108520507813	-970.0635375976565	nan	nan	nan	225.3929595947266	1507.53271484375	-882.6380615234377	218.7938079833985	1534.95263671875	-777.7398071289065	-296.9413452148438	1474.686889648438	-638.2923583984376	-160.7600708007813	1426.83837890625	-519.4790039062501	-128.9324798583985	1448.779052734375	-549.1467285156251	-91.4208221435547	1427.311279296875	-505.3843383789064	-19.93943786621094	1433.031982421875	-507.1521911621095	0.7290666699409486	1359.907348632813	-530.8755493164064	159.3088684082032	1502.143798828125	-704.8694458007814	190.0445861816407	1514.228637695313	-637.4531250000001	223.9292602539063	1552.861450195313	-743.6234741210939	-296.9846191406251	1013.380981445313	-924.178894042969	-293.7598266601563	989.928405761719	-672.2061767578126	-445.5361938476564	1079.8876953125	-790.996032714844	-455.2213439941407	1051.780029296875	-821.5712890625002	-453.0360107421876	1047.072021484375	-764.0249023437501	-251.1315460205079	827.2084960937502	-1025.118286132813	-180.8684387207032	781.2281494140627	-1033.547973632813	-147.5349578857422	801.2095947265627	-1003.123107910156	-174.69140625	721.0401000976564	-1043.706909179688	-146.1991271972657	637.3154907226564	-1043.498657226563	-126.1247787475586	599.1311645507814	-913.6248779296877	-186.919921875	516.5137329101564	-1005.680969238281	-255.3504028320313	546.2080078125001	-1053.033081054688	-239.2979736328126	509.566131591797	-1034.4921875	-309.1127319335938	474.1027832031251	-1003.426635742188	-474.2599182128907	462.4380187988282	-1018.338317871094	-436.7136535644532	459.436248779297	-935.8061523437502	-519.8531494140626	508.1109008789064	-978.8653564453127	-449.2486877441407	324.1871337890626	-908.8387451171877	-456.0401611328126	306.9776611328126	-954.8757934570315	-500.1913146972657	319.3440246582032	-1000.956970214844	-363.4289550781251	784.2078857421877	-625.4523925781251	-323.1997375488282	732.2182006835939	-632.7943115234376	-292.2230529785157	739.4123535156251	-644.0318603515626	-349.6051940917969	652.2921752929689	-650.9779663085939	-359.1427612304688	502.7913513183595	-695.1118164062501	-324.7424621582032	508.6067810058595	-820.6045532226565	-305.7039184570313	364.8552856445313	-774.9097900390627	-350.6944885253907	281.1473388671876	-723.0246582031251	-314.4930725097657	280.3724670410157	-755.8137207031251	-326.4560241699219	238.6031188964844	-795.2510375976565	-392.3977661132814	115.4234924316407	-768.0270996093752	-367.9557800292969	143.4334411621094	-846.6572265625002	-449.5438537597657	99.41799926757815	-824.5850219726565	-247.6928405761719	55.17875289916994	-838.522888183594	-245.5089569091797	55.33180999755861	-795.5178222656252	-283.2196350097657	36.00191879272462	-742.8523559570314	-325.6162414550782	1646.853637695313	-681.6619873046876	
